<svg xmlns="http://www.w3.org/2000/svg" viewBox="0 0 918.05 122.67"><g id="Layer_2" data-name="Layer 2"><g id="Layer_1-2" data-name="Layer 1"><path d="M86.77,61.34V86.77H61.34A25.43,25.43,0,1,1,86.77,61.34Z"/><path d="M100.66,14.27a61.33,61.33,0,1,0-39.32,108.4H83.46a28.47,28.47,0,0,1-2-3.37,28,28,0,0,1-3-12.63,28.38,28.38,0,0,1,.65-6H61.34a39.33,39.33,0,1,1,39.32-39.32V79.12a28.38,28.38,0,0,1,6-.65,28,28,0,0,1,12.63,3,28.47,28.47,0,0,1,3.37,2V61.34A61.16,61.16,0,0,0,100.66,14.27Z"/><path d="M114.17,92.52a16.09,16.09,0,0,0-13.51-.7,16,16,0,0,0-10,14.85,16,16,0,1,0,23.51-14.15Z"/><path d="M191.36,39.94a11,11,0,0,1-4.29,4.83,12.09,12.09,0,0,1-6.3,1.65,11.78,11.78,0,0,1-9.22-4Q168,38.5,168,31.88t3.52-10.59a11.78,11.78,0,0,1,9.22-4,12.1,12.1,0,0,1,6.3,1.66,10.92,10.92,0,0,1,4.29,4.82h13.53a22.85,22.85,0,0,0-8.57-13,25.16,25.16,0,0,0-15.4-4.75,26.15,26.15,0,0,0-13.14,3.28,23.1,23.1,0,0,0-9,9.14,27.18,27.18,0,0,0-3.24,13.36,27,27,0,0,0,3.24,13.32,23.22,23.22,0,0,0,9,9.11,26.25,26.25,0,0,0,13.14,3.27,25.27,25.27,0,0,0,15.4-4.71,22.71,22.71,0,0,0,8.57-12.93Z"/><path d="M234.63,6.68,216.34,57.22h12.89l3-8.93h18.86l3,8.93h13L248.88,6.68Zm.86,32.11,6.19-18.5L248,38.79Z"/><polygon points="316.27 6.68 277.18 6.68 277.18 16.54 290.57 16.54 290.57 57.22 302.88 57.22 302.88 16.54 316.27 16.54 316.27 6.68"/><path d="M358.9,6.68H344.64L326.35,57.22h12.89l3-8.93h18.86l3,8.93h13ZM345.51,38.79l6.19-18.5L358,38.79Z"/><polygon points="426.29 6.68 387.19 6.68 387.19 16.54 400.59 16.54 400.59 57.22 412.9 57.22 412.9 16.54 426.29 16.54 426.29 6.68"/><path d="M452.28,48.29h18.86l3,8.93h13L468.91,6.68H454.66L436.37,57.22h12.89Zm9.43-28L468,38.79H455.52Z"/><polygon points="545.16 6.68 532.85 6.68 532.85 38 512.26 6.68 499.94 6.68 499.94 57.22 512.26 57.22 512.26 26.05 532.85 57.22 545.16 57.22 545.16 6.68"/><path d="M631.06,39.94H617.52a11,11,0,0,1-4.28,4.83,12.09,12.09,0,0,1-6.3,1.65,11.75,11.75,0,0,1-9.22-4q-3.53-4-3.53-10.58t3.53-10.59a11.75,11.75,0,0,1,9.22-4,12.1,12.1,0,0,1,6.3,1.66,11,11,0,0,1,4.28,4.82h13.54a22.85,22.85,0,0,0-8.57-13A25.19,25.19,0,0,0,607.08,6.1a26.15,26.15,0,0,0-13.14,3.28,23.17,23.17,0,0,0-9,9.14,27.18,27.18,0,0,0-3.24,13.36A27,27,0,0,0,584.9,45.2a23.29,23.29,0,0,0,9,9.11,26.25,26.25,0,0,0,13.14,3.27,25.3,25.3,0,0,0,15.41-4.71A22.71,22.71,0,0,0,631.06,39.94Z"/><path d="M675.05,6.68H660.79L642.5,57.22h12.89l3-8.93h18.86l3,8.93h13ZM661.66,38.79l6.19-18.5,6.26,18.5Z"/><polygon points="730.13 31.45 749.71 6.68 735.24 6.68 718.39 28.85 718.39 6.68 706.08 6.68 706.08 57.22 718.39 57.22 718.39 34.9 735.38 57.22 750.43 57.22 730.13 31.45"/><path d="M800.9,6.68,782.61,57.22H795.5l3-8.93h18.86l3,8.93h13L815.16,6.68Zm.87,32.11L808,20.29l6.26,18.5Z"/><path d="M879.09,9.85a29.28,29.28,0,0,0-14-3.17H846.19V57.22h18.94a29.36,29.36,0,0,0,13.93-3.17,22.51,22.51,0,0,0,9.29-8.92A26.24,26.24,0,0,0,891.62,32a26.15,26.15,0,0,0-3.27-13.21A22.61,22.61,0,0,0,879.09,9.85Zm-3.88,32.9q-3.9,3.81-10.88,3.82H858.5V17.19h5.83q7,0,10.88,3.89T879.09,32Q879.09,38.94,875.21,42.75Z"/><rect x="905.73" y="6.68" width="12.31" height="50.54"/><path d="M165.62,99.54h6.78a5.63,5.63,0,0,1-2,2.88,5.46,5.46,0,0,1-3.33,1,6,6,0,0,1-4.51-1.7,7.54,7.54,0,0,1-.08-9.29,5.39,5.39,0,0,1,4.16-1.7,5.63,5.63,0,0,1,2.6.58A4.05,4.05,0,0,1,171,93h5.9a8.94,8.94,0,0,0-3.58-5.28,11.21,11.21,0,0,0-6.63-1.9,11.61,11.61,0,0,0-5.79,1.42,10.23,10.23,0,0,0-4,4A11.67,11.67,0,0,0,155.5,97a11.54,11.54,0,0,0,1.42,5.78,10.15,10.15,0,0,0,4,4,11.78,11.78,0,0,0,5.8,1.42,11.12,11.12,0,0,0,4.93-1.07,10.61,10.61,0,0,0,5.63-6.5v-5H165.62Z"/><rect x="186.47" y="90.55" width="5.34" height="17.44"/><path d="M189.15,83a3.24,3.24,0,0,0-2.29.83,2.7,2.7,0,0,0-.9,2.08,2.66,2.66,0,0,0,.9,2,3.55,3.55,0,0,0,4.56,0,2.68,2.68,0,0,0,.89-2,2.72,2.72,0,0,0-.89-2.08A3.22,3.22,0,0,0,189.15,83Z"/><polygon points="209.78 102.98 206 90.55 200.28 90.55 206.46 107.98 213.06 107.98 219.24 90.55 213.56 90.55 209.78 102.98"/><path d="M230.43,83a3.26,3.26,0,0,0-2.3.83,2.72,2.72,0,0,0-.89,2.08,2.68,2.68,0,0,0,.89,2,3.22,3.22,0,0,0,2.3.83,3.18,3.18,0,0,0,2.27-.83,2.68,2.68,0,0,0,.89-2,2.72,2.72,0,0,0-.89-2.08A3.22,3.22,0,0,0,230.43,83Z"/><rect x="227.74" y="90.55" width="5.34" height="17.44"/><path d="M253.84,90.36a7,7,0,0,0-3.1.67,5.71,5.71,0,0,0-2.19,1.83V90.55h-5.34V108h5.34V98.51a3.87,3.87,0,0,1,.91-2.72,3.58,3.58,0,0,1,4.88,0,3.86,3.86,0,0,1,.9,2.72V108h5.31V97.79a7.77,7.77,0,0,0-1.82-5.45A6.34,6.34,0,0,0,253.84,90.36Z"/><path d="M282.52,93a5.43,5.43,0,0,0-2.14-2,6.73,6.73,0,0,0-3.23-.76,7.23,7.23,0,0,0-3.91,1.1,7.6,7.6,0,0,0-2.77,3.12,10.54,10.54,0,0,0-1,4.72,10.66,10.66,0,0,0,1,4.74,7.69,7.69,0,0,0,2.77,3.15,7.16,7.16,0,0,0,3.91,1.11,6.38,6.38,0,0,0,3.21-.77,5.91,5.91,0,0,0,2.16-2V108a4.12,4.12,0,0,1-1,3,3.67,3.67,0,0,1-2.64,1,4.32,4.32,0,0,1-2.32-.58,2.49,2.49,0,0,1-1.18-1.58h-5.29a6.92,6.92,0,0,0,2.75,5,10.19,10.19,0,0,0,6.29,1.82,9.39,9.39,0,0,0,4.85-1.15,7.26,7.26,0,0,0,2.91-3.11,9.75,9.75,0,0,0,.95-4.36V90.55h-5.34Zm-1.11,9.41a3.7,3.7,0,0,1-5.4,0,4.42,4.42,0,0,1-1.11-3.17A4.32,4.32,0,0,1,276,96.09a3.74,3.74,0,0,1,5.4,0,5,5,0,0,1,0,6.31Z"/><path d="M317.42,103.11a1.48,1.48,0,0,1-.37-1.13V95h3.5V90.55h-3.5V86.29H311.7v4.26h-2.12V95h2.12v6.94c0,2.14.55,3.69,1.63,4.64a6.63,6.63,0,0,0,4.53,1.42h2.72v-4.53h-1.91A1.83,1.83,0,0,1,317.42,103.11Z"/><path d="M342.42,91.39a10.27,10.27,0,0,0-9.25,0,8,8,0,0,0-3.25,3.14,10.07,10.07,0,0,0,0,9.48,8,8,0,0,0,3.21,3.13,9.63,9.63,0,0,0,4.61,1.09,9.77,9.77,0,0,0,4.64-1.09,8.21,8.21,0,0,0,3.29-3.14,10,10,0,0,0,0-9.47A8,8,0,0,0,342.42,91.39Zm-2.08,11.09a3.49,3.49,0,0,1-2.61,1.13,3.27,3.27,0,0,1-2.54-1.13,5.59,5.59,0,0,1,0-6.45,3.39,3.39,0,0,1,2.6-1.11A3.35,3.35,0,0,1,340.37,96a4.56,4.56,0,0,1,1.05,3.22A4.46,4.46,0,0,1,340.34,102.48Z"/><path d="M381.45,91.39a10.27,10.27,0,0,0-9.25,0A8,8,0,0,0,369,94.53a10.11,10.11,0,0,0,0,9.48,8,8,0,0,0,3.22,3.13,9.63,9.63,0,0,0,4.61,1.09,9.77,9.77,0,0,0,4.64-1.09,8.12,8.12,0,0,0,3.28-3.14,9.94,9.94,0,0,0,0-9.47A8,8,0,0,0,381.45,91.39Zm-2.08,11.09a3.49,3.49,0,0,1-2.61,1.13,3.3,3.3,0,0,1-2.55-1.13,4.67,4.67,0,0,1-1-3.22,4.57,4.57,0,0,1,1-3.23,3.55,3.55,0,0,1,5.17,0,4.56,4.56,0,0,1,1.05,3.22A4.46,4.46,0,0,1,379.37,102.48Z"/><path d="M401.54,103.11a1.48,1.48,0,0,1-.37-1.13V95h3.5V90.55h-3.5V86.29h-5.35v4.26H393.7V95h2.12v6.94q0,3.21,1.63,4.64A6.63,6.63,0,0,0,402,108h2.72v-4.53h-1.91A1.83,1.83,0,0,1,401.54,103.11Z"/><path d="M424.63,90.36a7,7,0,0,0-3.15.69,5.61,5.61,0,0,0-2.22,1.84v-8h-5.34V108h5.34V98.51a3.86,3.86,0,0,1,.9-2.72,3.58,3.58,0,0,1,4.88,0,3.86,3.86,0,0,1,.9,2.72V108h5.32V97.79a7.77,7.77,0,0,0-1.82-5.45A6.19,6.19,0,0,0,424.63,90.36Z"/><path d="M453.47,91.36a10.06,10.06,0,0,0-9.09,0,7.72,7.72,0,0,0-3.11,3.12,9.78,9.78,0,0,0-1.11,4.75,9.62,9.62,0,0,0,1.13,4.75,7.77,7.77,0,0,0,3.12,3.13,9.35,9.35,0,0,0,4.56,1.09,9.23,9.23,0,0,0,3.85-.78,7.91,7.91,0,0,0,2.86-2.16,7.69,7.69,0,0,0,1.57-3.09h-5.68a2.82,2.82,0,0,1-2.78,1.69,3.21,3.21,0,0,1-2.27-.86,3.68,3.68,0,0,1-1-2.49h12.1a14.14,14.14,0,0,0,.09-1.56,9.18,9.18,0,0,0-1.11-4.59A7.61,7.61,0,0,0,453.47,91.36Zm-8,6.22a3.42,3.42,0,0,1,1.14-2.22,3.38,3.38,0,0,1,2.26-.78,3.48,3.48,0,0,1,2.35.81,2.76,2.76,0,0,1,.93,2.19Z"/><path d="M472.07,93.45v-2.9h-5.35V108h5.35V99.89a3.82,3.82,0,0,1,1-3,4.49,4.49,0,0,1,3-.86h1.46V90.36a6.06,6.06,0,0,0-3.12.82A7,7,0,0,0,472.07,93.45Z"/><path d="M497.41,98.47a27.64,27.64,0,0,0-3.16-1,12.79,12.79,0,0,1-2.48-.75,1.2,1.2,0,0,1-.8-1.12,1.16,1.16,0,0,1,.5-1,2.43,2.43,0,0,1,1.44-.36,2.77,2.77,0,0,1,1.76.53,2.14,2.14,0,0,1,.8,1.44h4.94a6.32,6.32,0,0,0-2.17-4.31,7.73,7.73,0,0,0-5.18-1.63,9.43,9.43,0,0,0-3.82.72,5.5,5.5,0,0,0-2.44,2A4.8,4.8,0,0,0,486,95.7a4.15,4.15,0,0,0,.91,2.83,5.32,5.32,0,0,0,2.15,1.53,24.4,24.4,0,0,0,3.13.92,15.68,15.68,0,0,1,2.53.8,1.17,1.17,0,0,1,.78,1.11,1.18,1.18,0,0,1-.55,1,2.62,2.62,0,0,1-1.54.39,3,3,0,0,1-1.85-.56,2,2,0,0,1-.84-1.47h-5.28a5.66,5.66,0,0,0,1.15,3,7,7,0,0,0,2.82,2.14,10,10,0,0,0,4.06.78,9.4,9.4,0,0,0,3.73-.69,5.51,5.51,0,0,0,2.47-1.89,4.59,4.59,0,0,0,.86-2.73,4.44,4.44,0,0,0-.95-2.89A5.45,5.45,0,0,0,497.41,98.47Z"/><polygon points="508.91 112.01 512.31 112.01 515.78 103.04 510.72 103.04 508.91 112.01"/><polygon points="538.12 107.98 551.56 107.98 551.56 103.7 543.47 103.7 543.47 98.89 550.62 98.89 550.62 94.76 543.47 94.76 543.47 90.33 551.56 90.33 551.56 86.05 538.12 86.05 538.12 107.98"/><path d="M573.28,93A5.82,5.82,0,0,0,571,91a7,7,0,0,0-3.14-.72,7.17,7.17,0,0,0-3.9,1.1,7.6,7.6,0,0,0-2.77,3.12,10.41,10.41,0,0,0-1,4.72,10.53,10.53,0,0,0,1,4.74,7.69,7.69,0,0,0,2.77,3.15,7.1,7.1,0,0,0,3.9,1.11,6.67,6.67,0,0,0,3.23-.75,5.47,5.47,0,0,0,2.15-2V108h5.34V84.86h-5.34Zm-1.11,9.47a3.71,3.71,0,0,1-5.41,0,4.42,4.42,0,0,1-1.11-3.17,4.32,4.32,0,0,1,1.11-3.14,3.76,3.76,0,0,1,5.41,0,5,5,0,0,1,0,6.31Z"/><path d="M600.62,100a3.79,3.79,0,0,1-.91,2.72,3.59,3.59,0,0,1-4.91,0,3.83,3.83,0,0,1-.9-2.72V90.55h-5.31v10.18a8.8,8.8,0,0,0,.84,4,6,6,0,0,0,2.38,2.58,6.91,6.91,0,0,0,3.53.89,6.67,6.67,0,0,0,3.07-.71,5.84,5.84,0,0,0,2.21-1.85V108H606V90.55h-5.34Z"/><path d="M623.65,94.86a2.73,2.73,0,0,1,2.78,2h5.68A8.07,8.07,0,0,0,629.22,92a8.67,8.67,0,0,0-5.48-1.72,9.28,9.28,0,0,0-4.55,1.1,7.74,7.74,0,0,0-3.09,3.12,10.72,10.72,0,0,0,0,9.5,7.7,7.7,0,0,0,3.09,3.13,9.28,9.28,0,0,0,4.55,1.09,8.54,8.54,0,0,0,5.47-1.75,8.14,8.14,0,0,0,2.9-4.81h-5.68a2.74,2.74,0,0,1-2.78,2,2.82,2.82,0,0,1-2.35-1.14,6.56,6.56,0,0,1,0-6.53A2.82,2.82,0,0,1,623.65,94.86Z"/><path d="M653.21,93a5.5,5.5,0,0,0-2.14-2,6.74,6.74,0,0,0-3.24-.76,7.17,7.17,0,0,0-3.9,1.1,7.6,7.6,0,0,0-2.77,3.12,10.41,10.41,0,0,0-1,4.72,10.53,10.53,0,0,0,1,4.74,7.69,7.69,0,0,0,2.77,3.15,7,7,0,0,0,3.87,1.11,6.74,6.74,0,0,0,3.24-.75,5.84,5.84,0,0,0,2.17-2V108h5.34V90.55h-5.34Zm-1.11,9.41a3.71,3.71,0,0,1-5.41,0,4.42,4.42,0,0,1-1.11-3.17,4.32,4.32,0,0,1,1.11-3.14,3.76,3.76,0,0,1,5.41,0,5,5,0,0,1,0,6.31Z"/><path d="M675.24,103.11a1.48,1.48,0,0,1-.38-1.13V95h3.5V90.55h-3.5V86.29h-5.34v4.26h-2.13V95h2.13v6.94q0,3.21,1.62,4.64a6.67,6.67,0,0,0,4.53,1.42h2.72v-4.53h-1.9A1.82,1.82,0,0,1,675.24,103.11Z"/><path d="M699.86,91.36a9.3,9.3,0,0,0-4.5-1.07,9.45,9.45,0,0,0-4.6,1.1,7.64,7.64,0,0,0-3.1,3.12,9.78,9.78,0,0,0-1.11,4.75,9.61,9.61,0,0,0,1.12,4.75,7.73,7.73,0,0,0,3.13,3.13,9.32,9.32,0,0,0,4.56,1.09,9.15,9.15,0,0,0,3.84-.78,7.83,7.83,0,0,0,2.86-2.16,7.71,7.71,0,0,0,1.58-3.09H698a2.82,2.82,0,0,1-2.78,1.69,3.22,3.22,0,0,1-2.27-.86,3.63,3.63,0,0,1-1-2.49H704a14.22,14.22,0,0,0,.1-1.56,9.18,9.18,0,0,0-1.11-4.59A7.68,7.68,0,0,0,699.86,91.36Zm-8,6.22A3.51,3.51,0,0,1,693,95.36a3.38,3.38,0,0,1,2.27-.78,3.47,3.47,0,0,1,2.34.81,2.76,2.76,0,0,1,.94,2.19Z"/><path d="M732.54,103.11a1.48,1.48,0,0,1-.37-1.13V95h3.5V90.55h-3.5V86.29h-5.34v4.26H724.7V95h2.13v6.94q0,3.21,1.62,4.64A6.63,6.63,0,0,0,733,108h2.72v-4.53h-1.91A1.83,1.83,0,0,1,732.54,103.11Z"/><path d="M757.54,91.39a10.27,10.27,0,0,0-9.25,0A8,8,0,0,0,745,94.53a10.07,10.07,0,0,0,0,9.48,8,8,0,0,0,3.21,3.13,9.63,9.63,0,0,0,4.61,1.09,9.77,9.77,0,0,0,4.64-1.09,8.12,8.12,0,0,0,3.28-3.14A9.11,9.11,0,0,0,762,99.26a9.26,9.26,0,0,0-1.19-4.73A8,8,0,0,0,757.54,91.39Zm-2.08,11.09a3.49,3.49,0,0,1-2.61,1.13,3.27,3.27,0,0,1-2.54-1.13,5.59,5.59,0,0,1,0-6.45,3.39,3.39,0,0,1,2.6-1.11A3.35,3.35,0,0,1,755.49,96a4.56,4.56,0,0,1,1,3.22A4.46,4.46,0,0,1,755.46,102.48Z"/><path d="M783.07,93a5.43,5.43,0,0,0-2.14-2,6.73,6.73,0,0,0-3.23-.76,7.23,7.23,0,0,0-3.91,1.1A7.6,7.6,0,0,0,771,94.51a10.54,10.54,0,0,0-1,4.72,10.66,10.66,0,0,0,1,4.74,7.69,7.69,0,0,0,2.77,3.15,7.16,7.16,0,0,0,3.91,1.11,6.38,6.38,0,0,0,3.21-.77,5.91,5.91,0,0,0,2.16-2V108a4.12,4.12,0,0,1-1,3,3.68,3.68,0,0,1-2.65,1,4.31,4.31,0,0,1-2.31-.58,2.49,2.49,0,0,1-1.18-1.58h-5.29a6.92,6.92,0,0,0,2.75,5,10.19,10.19,0,0,0,6.29,1.82,9.39,9.39,0,0,0,4.85-1.15,7.26,7.26,0,0,0,2.91-3.11,9.89,9.89,0,0,0,.95-4.36V90.55h-5.34ZM782,102.42a3.71,3.71,0,0,1-5.41,0,4.42,4.42,0,0,1-1.11-3.17,4.32,4.32,0,0,1,1.11-3.14,3.76,3.76,0,0,1,5.41,0,5,5,0,0,1,0,6.31Z"/><path d="M810.79,91.36a9.35,9.35,0,0,0-4.5-1.07,9.45,9.45,0,0,0-4.6,1.1,7.72,7.72,0,0,0-3.11,3.12,9.78,9.78,0,0,0-1.11,4.75A9.62,9.62,0,0,0,798.6,104a7.77,7.77,0,0,0,3.12,3.13,9.39,9.39,0,0,0,4.57,1.09,9.22,9.22,0,0,0,3.84-.78,7.91,7.91,0,0,0,2.86-2.16,7.71,7.71,0,0,0,1.58-3.09h-5.69a2.82,2.82,0,0,1-2.78,1.69,3.22,3.22,0,0,1-2.27-.86,3.63,3.63,0,0,1-1-2.49h12.09A14.14,14.14,0,0,0,815,99a9.18,9.18,0,0,0-1.11-4.59A7.65,7.65,0,0,0,810.79,91.36Zm-8,6.22A3.42,3.42,0,0,1,804,95.36a3.38,3.38,0,0,1,2.26-.78,3.48,3.48,0,0,1,2.35.81,2.76,2.76,0,0,1,.93,2.19Z"/><path d="M830.6,103.11a1.48,1.48,0,0,1-.38-1.13V95h3.5V90.55h-3.5V86.29h-5.34v4.26h-2.13V95h2.13v6.94q0,3.21,1.62,4.64A6.67,6.67,0,0,0,831,108h2.72v-4.53h-1.9A1.82,1.82,0,0,1,830.6,103.11Z"/><path d="M853.69,90.36a7.08,7.08,0,0,0-3.16.69,5.76,5.76,0,0,0-2.22,1.84v-8H843V108h5.34V98.51a3.87,3.87,0,0,1,.91-2.72,3.58,3.58,0,0,1,4.88,0,3.86,3.86,0,0,1,.9,2.72V108h5.31V97.79a7.76,7.76,0,0,0-1.81-5.45A6.21,6.21,0,0,0,853.69,90.36Z"/><path d="M882.53,91.36a10.06,10.06,0,0,0-9.09,0,7.66,7.66,0,0,0-3.11,3.12,9.78,9.78,0,0,0-1.11,4.75,9.61,9.61,0,0,0,1.12,4.75,7.73,7.73,0,0,0,3.13,3.13,9.32,9.32,0,0,0,4.56,1.09,9.15,9.15,0,0,0,3.84-.78,7.83,7.83,0,0,0,2.86-2.16,7.71,7.71,0,0,0,1.58-3.09h-5.69a2.82,2.82,0,0,1-2.78,1.69,3.2,3.2,0,0,1-2.26-.86,3.59,3.59,0,0,1-1.05-2.49h12.09a12.11,12.11,0,0,0,.1-1.56,9.18,9.18,0,0,0-1.11-4.59A7.68,7.68,0,0,0,882.53,91.36Zm-8,6.22a3.51,3.51,0,0,1,1.14-2.22,3.74,3.74,0,0,1,4.61,0,2.73,2.73,0,0,1,.94,2.19Z"/><path d="M901.12,93.45v-2.9h-5.34V108h5.34V99.89a3.82,3.82,0,0,1,1-3,4.53,4.53,0,0,1,3-.86h1.47V90.36a6,6,0,0,0-3.12.82A7.17,7.17,0,0,0,901.12,93.45Z"/></g></g></svg>